HIERARCHY
ROOT Hips
{
 OFFSET 0.000000 0.000000 0.000000
 CHANNELS 6 Xposition Yposition Zposition Yrotation Xrotation Zrotation
 JOINT Chest
 {
  OFFSET 0.000000 9.585900 0.002600
  CHANNELS 3 Yrotation Xrotation Zrotation
  JOINT Chest2
  {
   OFFSET 0.000000 9.601200 -0.005300
   CHANNELS 3 Yrotation Xrotation Zrotation
   JOINT Chest3
   {
    OFFSET 0.000000 9.561800 0.000000
    CHANNELS 3 Yrotation Xrotation Zrotation
    JOINT Chest4
    {
     OFFSET 0.000000 9.552100 0.000000
     CHANNELS 3 Yrotation Xrotation Zrotation
     JOINT Neck
     {
      OFFSET 0.000000 14.453000 0.000000
      CHANNELS 3 Yrotation Xrotation Zrotation
      JOINT Head
      {
       OFFSET 0.000000 8.936500 -0.011300
       CHANNELS 3 Yrotation Xrotation Zrotation
       End Site
       {
        OFFSET 0.000000 17.073600 -0.006000
       }
      }
     }
     JOINT RightCollar
     {
      OFFSET -2.921100 9.558500 0.000000
      CHANNELS 3 Yrotation Xrotation Zrotation
      JOINT RightShoulder
      {
       OFFSET -13.519700 0.000000 0.000000
       CHANNELS 3 Yrotation Xrotation Zrotation
       JOINT RightElbow
       {
        OFFSET 0.000000 -29.696600 0.000000
        CHANNELS 3 Yrotation Xrotation Zrotation
        JOINT RightWrist
        {
         OFFSET 0.000000 -24.004700 0.000000
         CHANNELS 3 Yrotation Xrotation Zrotation
         End Site
         {
          OFFSET 0.000000 -17.728500 0.000000
         }
        }
       }
      }
     }
     JOINT LeftCollar
     {
      OFFSET 2.921100 9.558500 0.000000
      CHANNELS 3 Yrotation Xrotation Zrotation
      JOINT LeftShoulder
      {
       OFFSET 13.519700 0.000000 0.000000
       CHANNELS 3 Yrotation Xrotation Zrotation
       JOINT LeftElbow
       {
        OFFSET 0.000000 -29.696600 0.000000
        CHANNELS 3 Yrotation Xrotation Zrotation
        JOINT LeftWrist
        {
         OFFSET 0.000000 -24.004700 0.000000
         CHANNELS 3 Yrotation Xrotation Zrotation
         End Site
         {
          OFFSET 0.000000 -17.728500 0.000000
         }
        }
       }
      }
     }
    }
   }
  }
 }
 JOINT RightHip
 {
  OFFSET -7.771700 -0.012900 -0.001300
  CHANNELS 3 Yrotation Xrotation Zrotation
  JOINT RightKnee
  {
   OFFSET 0.000000 -40.869800 0.001200
   CHANNELS 3 Yrotation Xrotation Zrotation
   JOINT RightAnkle
   {
    OFFSET 0.000000 -39.717900 0.002100
    CHANNELS 3 Yrotation Xrotation Zrotation
    JOINT RightToe
    {
     OFFSET 0.000000 -4.965400 11.033500
     CHANNELS 3 Yrotation Xrotation Zrotation
     End Site
     {
      OFFSET 0.000000 -1.423100 5.872300
     }
    }
   }
  }
 }
 JOINT LeftHip
 {
  OFFSET 7.771700 -0.012900 -0.001300
  CHANNELS 3 Yrotation Xrotation Zrotation
  JOINT LeftKnee
  {
   OFFSET 0.000000 -40.869800 0.001200
   CHANNELS 3 Yrotation Xrotation Zrotation
   JOINT LeftAnkle
   {
    OFFSET 0.000000 -39.717900 0.002100
    CHANNELS 3 Yrotation Xrotation Zrotation
    JOINT LeftToe
    {
     OFFSET 0.000000 -4.965400 11.033500
     CHANNELS 3 Yrotation Xrotation Zrotation
     End Site
     {
      OFFSET 0.000000 -1.423100 5.872300
     }
    }
   }
  }
 }
}
MOTION
Frames: 9
Frame Time: 0.008333
0.000000 85.388000 0.000000 0.000000 -5.767877 0.000000 0.000000 11.653817 0.000000 0.000000 -5.885947 0.000000 0.000000 -0.000000 0.000000 0.000000 -0.000000 0.000000 0.000000 12.528835 0.000000 0.000000 0.711642 0.000000 0.000000 -0.000000 0.000000 0.000000 0.000000 -90.000000 0.000000 -2.309062 0.000000 0.000000 2.309062 0.000000 0.000000 -0.000000 0.000000 0.000000 -0.000000 90.000000 0.000000 -2.309062 0.000000 0.000000 2.309062 0.000000 0.000000 8.520406 0.000000 0.000000 1.905762 0.000000 -0.000000 -4.658285 0.000000 0.000000 -0.000000 0.000000 0.000000 8.520406 0.000000 0.000000 1.905762 0.000000 -0.000000 -4.658285 0.000000 0.000000 -0.000000 0.000000
-97.091486 57.356593 -0.958306 160.764492 -7.761117 0.083452 2.643380 7.555651 0.896285 0.114106 0.362811 0.004404 0.200955 0.632919 0.007376 2.287432 7.165537 0.215382 0.960842 17.549601 -1.125851 2.133204 -3.179543 -2.385567 -0.791250 6.562542 -0.062289 -6.739820 -8.219227 -8.468941 -101.295782 -80.643132 123.761076 -5.439383 4.508376 -32.685891 -2.558941 6.960287 -1.613094 18.126655 -3.965852 1.297942 121.588962 -78.403055 -141.520274 0.379156 5.474538 17.115100 -22.589880 -63.557643 13.439403 -27.895088 73.925309 -26.699733 -0.462826 -7.557618 -5.602473 -0.232106 0.657669 -0.106004 10.236580 -67.511096 9.582221 41.695831 63.347145 32.753181 -18.523214 -8.913342 6.395332 -0.183550 -1.073894 -0.107953
-97.092310 57.356707 -0.956538 160.773501 -7.754439 0.089214 2.634404 7.548656 0.888575 0.115129 0.362430 0.003947 0.201242 0.633203 0.007349 2.294722 7.167606 0.214820 0.954551 17.548533 -1.126629 2.132051 -3.177334 -2.383331 -0.797990 6.558765 -0.057441 -6.755667 -8.226316 -8.464560 -101.299945 -80.646448 123.773775 -5.442740 4.511034 -32.690032 -2.567681 6.960634 -1.611872 18.137699 -3.964768 1.296897 121.525763 -78.408520 -141.464786 0.377619 5.462690 17.127226 -22.588494 -63.566455 13.428053 -27.884842 73.926850 -26.686593 -0.467440 -7.559227 -5.602663 -0.228421 0.658064 -0.106789 10.255735 -67.510809 9.553421 41.681712 63.330452 32.735255 -18.533436 -8.882854 6.402341 -0.194828 -1.048731 -0.110094
-97.091360 57.356920 -0.955232 160.770904 -7.754793 0.087768 2.636853 7.546400 0.886438 0.115367 0.362638 0.003804 0.201730 0.633636 0.007176 2.298523 7.168315 0.212035 0.952238 17.549377 -1.120442 2.135643 -3.175821 -2.385264 -0.799789 6.555543 -0.040624 -6.760189 -8.223406 -8.467354 -101.320078 -80.651024 123.796375 -5.438802 4.497288 -32.694363 -2.568362 6.965946 -1.601962 18.140254 -3.964760 1.287923 121.529941 -78.412427 -141.472425 0.366798 5.471249 17.126908 -22.587102 -63.565145 13.429483 -27.874860 73.926310 -26.674355 -0.468948 -7.555621 -5.597595 -0.232006 0.655278 -0.112060 10.251944 -67.509408 9.558832 41.683628 63.321597 32.731692 -18.523392 -8.851501 6.416908 -0.188483 -1.000398 -0.107497
-97.090578 57.357106 -0.954540 160.766081 -7.758915 0.089039 2.637445 7.547805 0.886211 0.115038 0.363257 0.004079 0.203790 0.633093 0.006520 2.299196 7.172335 0.211955 0.951216 17.550083 -1.120546 2.132419 -3.177628 -2.385292 -0.798371 6.553577 -0.040264 -6.767435 -8.219591 -8.466778 -101.356076 -80.649516 123.838543 -5.437968 4.498272 -32.694925 -2.566831 6.967573 -1.601350 18.140942 -3.966954 1.285319 121.516614 -78.413831 -141.458370 0.364268 5.476894 17.126799 -22.578189 -63.560486 13.421993 -27.855906 73.926595 -26.652746 -0.468401 -7.554305 -5.591935 -0.237888 0.655217 -0.116513 10.250965 -67.504485 9.563489 41.687954 63.315710 32.731028 -18.521592 -8.818017 6.429360 -0.195410 -0.996450 -0.112316
-97.089418 57.357316 -0.955083 160.758772 -7.771130 0.091387 2.643277 7.560128 0.885464 0.115690 0.364912 0.005286 0.201847 0.632409 0.005618 2.300802 7.172357 0.211578 0.950725 17.550803 -1.120429 2.131300 -3.174586 -2.389530 -0.801360 6.553271 -0.038661 -6.763507 -8.220251 -8.473651 -101.406360 -80.642942 123.889575 -5.438067 4.500503 -32.698744 -2.567711 6.968754 -1.602311 18.143323 -3.971891 1.284722 121.485080 -78.417963 -141.424025 0.363356 5.480187 17.126741 -22.563191 -63.547874 13.408086 -27.833140 73.929081 -26.627128 -0.465825 -7.556754 -5.594576 -0.242830 0.657259 -0.117231 10.253102 -67.491734 9.568101 41.689168 63.313134 32.730343 -18.521478 -8.783906 6.437964 -0.196483 -0.996425 -0.113689
-97.088606 57.357247 -0.954981 160.760230 -7.779060 0.094090 2.641968 7.569286 0.883391 0.115647 0.366628 0.007933 0.201386 0.631317 0.003224 2.296696 7.175208 0.213745 0.952628 17.548338 -1.123228 2.132325 -3.172531 -2.393393 -0.802045 6.546531 -0.047623 -6.768451 -8.214496 -8.472524 -101.426645 -80.639929 123.919522 -5.436353 4.487625 -32.703422 -2.564911 6.964772 -1.605997 18.144207 -3.973007 1.285949 121.446037 -78.418078 -141.379257 0.358167 5.478220 17.121569 -22.556216 -63.540783 13.396157 -27.817371 73.931896 -26.608249 -0.470374 -7.558433 -5.600294 -0.240561 0.657775 -0.114003 10.252384 -67.482182 9.566480 41.672163 63.311312 32.711300 -18.516472 -8.743268 6.446004 -0.187779 -1.007275 -0.114229
-97.086912 57.356420 -0.950199 160.779549 -7.762040 0.081403 2.625844 7.557842 0.900499 0.114440 0.362136 0.002295 0.201510 0.635941 0.008815 2.289848 7.175475 0.209895 0.953489 17.548523 -1.126869 2.135065 -3.177078 -2.396956 -0.799775 6.541644 -0.054096 -6.773752 -8.205502 -8.471068 -101.487929 -80.640237 123.989579 -5.439206 4.483925 -32.704984 -2.557326 6.960062 -1.608253 18.132137 -3.965740 1.289269 121.469834 -78.409688 -141.393229 0.355225 5.480072 17.119054 -22.610817 -63.551971 13.434745 -27.803900 73.933059 -26.592277 -0.471835 -7.554343 -5.601339 -0.240763 0.654163 -0.115653 10.215076 -67.499557 9.586571 41.646217 63.293061 32.678702 -18.509818 -8.681489 6.453998 -0.187126 -1.039178 -0.119642
-97.088406 57.355864 -0.949939 160.776984 -7.764269 0.099933 2.625704 7.563235 0.884883 0.116008 0.361165 0.001312 0.200683 0.635730 0.008760 2.288339 7.175854 0.211486 0.953975 17.549950 -1.129722 2.137154 -3.173916 -2.402315 -0.800812 6.542786 -0.059141 -6.777017 -8.206113 -8.469042 -101.521689 -80.644480 124.036043 -5.444417 4.476907 -32.712512 -2.555493 6.959013 -1.611299 18.126892 -3.960523 1.291268 121.479348 -78.405987 -141.400376 0.352018 5.482352 17.118661 -22.579342 -63.556099 13.399383 -27.794652 73.933447 -26.582930 -0.472599 -7.562268 -5.603664 -0.239027 0.662339 -0.114759 10.266381 -67.495817 9.534933 41.636012 63.286221 32.671916 -18.536171 -8.600493 6.464519 -0.193212 -1.076014 -0.126966
